<svg xmlns="http://www.w3.org/2000/svg" xmlns:xlink="http://www.w3.org/1999/xlink" width="1366" zoomAndPan="magnify" viewBox="0 0 1024.5 576" height="768" preserveAspectRatio="xMidYMid meet" version="1.0"><defs><g/><clipPath id="74222892b9"><path d="M 0 98.398438 L 647.757812 98.398438 L 647.757812 426.117188 L 0 426.117188 Z M 0 98.398438 " clip-rule="nonzero"/></clipPath><clipPath id="24d6b4c582"><path d="M 22.488281 98.398438 L 625.234375 98.398438 C 631.199219 98.398438 636.917969 100.769531 641.136719 104.984375 C 645.351562 109.203125 647.722656 114.921875 647.722656 120.886719 L 647.722656 403.628906 C 647.722656 409.59375 645.351562 415.3125 641.136719 419.53125 C 636.917969 423.75 631.199219 426.117188 625.234375 426.117188 L 22.488281 426.117188 C 16.523438 426.117188 10.804688 423.75 6.585938 419.53125 C 2.371094 415.3125 0 409.59375 0 403.628906 L 0 120.886719 C 0 114.921875 2.371094 109.203125 6.585938 104.984375 C 10.804688 100.769531 16.523438 98.398438 22.488281 98.398438 Z M 22.488281 98.398438 " clip-rule="nonzero"/></clipPath><clipPath id="0c0985cec9"><path d="M 0 0.398438 L 647.757812 0.398438 L 647.757812 328.117188 L 0 328.117188 Z M 0 0.398438 " clip-rule="nonzero"/></clipPath><clipPath id="958a2fc7bb"><path d="M 22.488281 0.398438 L 625.234375 0.398438 C 631.199219 0.398438 636.917969 2.769531 641.136719 6.984375 C 645.351562 11.203125 647.722656 16.921875 647.722656 22.886719 L 647.722656 305.628906 C 647.722656 311.59375 645.351562 317.3125 641.136719 321.53125 C 636.917969 325.75 631.199219 328.117188 625.234375 328.117188 L 22.488281 328.117188 C 16.523438 328.117188 10.804688 325.75 6.585938 321.53125 C 2.371094 317.3125 0 311.59375 0 305.628906 L 0 22.886719 C 0 16.921875 2.371094 11.203125 6.585938 6.984375 C 10.804688 2.769531 16.523438 0.398438 22.488281 0.398438 Z M 22.488281 0.398438 " clip-rule="nonzero"/></clipPath><clipPath id="9d0dc9f9dd"><rect x="0" width="648" y="0" height="329"/></clipPath><clipPath id="007d78dcd2"><rect x="0" width="525" y="0" height="358"/></clipPath><clipPath id="5662c1355a"><path d="M 662 0.140625 L 1021 0.140625 L 1021 575.859375 L 662 575.859375 Z M 662 0.140625 " clip-rule="nonzero"/></clipPath><clipPath id="8bbce05bbd"><rect x="0" width="359" y="0" height="576"/></clipPath></defs><g clip-path="url(#74222892b9)"><g clip-path="url(#24d6b4c582)"><g transform="matrix(1, 0, 0, 1, 0, 98)"><g clip-path="url(#9d0dc9f9dd)"><g clip-path="url(#0c0985cec9)"><g clip-path="url(#958a2fc7bb)"><path fill="#ffffff" d="M 0 0.398438 L 647.757812 0.398438 L 647.757812 328.117188 L 0 328.117188 Z M 0 0.398438 " fill-opacity="1" fill-rule="nonzero"/></g></g></g></g></g></g><g transform="matrix(1, 0, 0, 1, 56, 109)"><g clip-path="url(#007d78dcd2)"><g fill="#000000" fill-opacity="1"><g transform="translate(2.43002, 256.19648)"><g><path d="M 230.65625 -132.21875 L 230.65625 -80.984375 C 224.550781 -52.941406 211.195312 -31.71875 190.59375 -17.3125 C 169.988281 -2.90625 147 4.296875 121.625 4.296875 C 89.757812 4.296875 62.617188 -7.625 40.203125 -31.46875 C 17.785156 -55.320312 6.578125 -84.132812 6.578125 -117.90625 C 6.578125 -152.238281 17.546875 -181.234375 39.484375 -204.890625 C 61.429688 -228.554688 88.8125 -240.390625 121.625 -240.390625 C 159.96875 -240.390625 190.300781 -226.9375 212.625 -200.03125 L 177.421875 -161.40625 C 164.835938 -181.625 147.285156 -191.734375 124.765625 -191.734375 C 108.171875 -191.734375 94.003906 -184.53125 82.265625 -170.125 C 70.535156 -155.71875 64.671875 -138.3125 64.671875 -117.90625 C 64.671875 -97.875 70.535156 -80.75 82.265625 -66.53125 C 94.003906 -52.320312 108.171875 -45.21875 124.765625 -45.21875 C 138.503906 -45.21875 150.476562 -49.363281 160.6875 -57.65625 C 170.894531 -65.957031 176 -76.976562 176 -90.71875 L 121.625 -90.71875 L 121.625 -132.21875 Z M 230.65625 -132.21875 "/></g></g></g><g fill="#000000" fill-opacity="1"><g transform="translate(239.659111, 256.19648)"><g><path d="M 165.6875 -66.390625 L 59.234375 -66.390625 C 59.234375 -56.085938 62.570312 -48.457031 69.25 -43.5 C 75.925781 -38.539062 83.175781 -36.0625 91 -36.0625 C 99.207031 -36.0625 105.691406 -37.15625 110.453125 -39.34375 C 115.222656 -41.539062 120.664062 -45.882812 126.78125 -52.375 L 163.40625 -34.046875 C 148.144531 -8.484375 122.769531 4.296875 87.28125 4.296875 C 65.15625 4.296875 46.171875 -3.285156 30.328125 -18.453125 C 14.492188 -33.617188 6.578125 -51.882812 6.578125 -73.25 C 6.578125 -94.625 14.492188 -112.941406 30.328125 -128.203125 C 46.171875 -143.460938 65.15625 -151.09375 87.28125 -151.09375 C 110.5625 -151.09375 129.5 -144.367188 144.09375 -130.921875 C 158.6875 -117.472656 165.984375 -98.253906 165.984375 -73.265625 C 165.984375 -69.828125 165.882812 -67.535156 165.6875 -66.390625 Z M 60.671875 -94.4375 L 116.46875 -94.4375 C 115.320312 -102.070312 112.316406 -107.9375 107.453125 -112.03125 C 102.585938 -116.132812 96.34375 -118.1875 88.71875 -118.1875 C 80.320312 -118.1875 73.640625 -115.992188 68.671875 -111.609375 C 63.710938 -107.222656 61.046875 -101.5 60.671875 -94.4375 Z M 60.671875 -94.4375 "/></g></g></g><g fill="#000000" fill-opacity="1"><g transform="translate(410.784504, 256.19648)"><g><path d="M 25.75 -146.8125 L 25.75 -201.46875 L 76.40625 -201.46875 L 76.40625 -146.8125 L 107.3125 -146.8125 L 107.3125 -108.171875 L 76.40625 -108.171875 L 76.40625 -61.53125 C 76.40625 -47.976562 80.222656 -41.203125 87.859375 -41.203125 C 89.765625 -41.203125 91.765625 -41.582031 93.859375 -42.34375 C 95.960938 -43.113281 97.585938 -43.878906 98.734375 -44.640625 L 100.453125 -45.78125 L 113.03125 -4.859375 C 102.15625 1.242188 89.753906 4.296875 75.828125 4.296875 C 66.296875 4.296875 58.09375 2.628906 51.21875 -0.703125 C 44.351562 -4.046875 39.15625 -8.53125 35.625 -14.15625 C 32.09375 -19.789062 29.5625 -25.707031 28.03125 -31.90625 C 26.507812 -38.101562 25.75 -44.734375 25.75 -51.796875 L 25.75 -108.171875 L 4.578125 -108.171875 L 4.578125 -146.8125 Z M 25.75 -146.8125 "/></g></g></g></g></g><g clip-path="url(#5662c1355a)"><g transform="matrix(1, 0, 0, 1, 662, -0.000000000000058398)"><g clip-path="url(#8bbce05bbd)"><g fill="#ffffff" fill-opacity="1"><g transform="translate(2.469686, 385.32121)"><g><path d="M 62.140625 0 L 32.484375 0 L 32.484375 -250.453125 L 62.140625 -250.453125 Z M 62.140625 0 "/></g></g></g><g fill="#ffffff" fill-opacity="1"><g transform="translate(97.09317, 385.32121)"><g><path d="M 225.96875 0 L 192.078125 0 L 32.953125 -249.03125 L 32.953125 -250.453125 L 66.375 -250.453125 L 225.96875 -1.40625 Z M 225.96875 -35.3125 L 225.03125 -35.3125 L 198.65625 -76.734375 L 198.65625 -250.453125 L 225.96875 -250.453125 Z M 59.78125 0 L 32.484375 0 L 32.484375 -215.140625 L 33.890625 -215.140625 L 60.265625 -172.765625 Z M 59.78125 0 "/></g></g></g></g></g></g></svg>