<svg xmlns="http://www.w3.org/2000/svg" xmlns:xlink="http://www.w3.org/1999/xlink" width="1366" zoomAndPan="magnify" viewBox="0 0 1024.5 576" height="768" preserveAspectRatio="xMidYMid meet" version="1.0"><defs><g/><clipPath id="0c04566577"><path d="M 0 99.988281 L 648 99.988281 L 648 428.039062 L 0 428.039062 Z M 0 99.988281 " clip-rule="nonzero"/></clipPath><clipPath id="a15477392b"><path d="M 22.488281 99.988281 L 625.234375 99.988281 C 631.199219 99.988281 636.917969 102.359375 641.136719 106.578125 C 645.351562 110.792969 647.722656 116.515625 647.722656 122.480469 L 647.722656 405.550781 C 647.722656 411.515625 645.351562 417.234375 641.136719 421.453125 C 636.917969 425.671875 631.199219 428.039062 625.234375 428.039062 L 22.488281 428.039062 C 16.523438 428.039062 10.804688 425.671875 6.585938 421.453125 C 2.371094 417.234375 0 411.515625 0 405.550781 L 0 122.480469 C 0 116.515625 2.371094 110.792969 6.585938 106.578125 C 10.804688 102.359375 16.523438 99.988281 22.488281 99.988281 Z M 22.488281 99.988281 " clip-rule="nonzero"/></clipPath><clipPath id="f9fb82253b"><path d="M 0 0.988281 L 647.921875 0.988281 L 647.921875 329.039062 L 0 329.039062 Z M 0 0.988281 " clip-rule="nonzero"/></clipPath><clipPath id="1a41f5dddd"><path d="M 22.488281 0.988281 L 625.234375 0.988281 C 631.199219 0.988281 636.917969 3.359375 641.136719 7.578125 C 645.351562 11.792969 647.722656 17.515625 647.722656 23.480469 L 647.722656 306.550781 C 647.722656 312.515625 645.351562 318.234375 641.136719 322.453125 C 636.917969 326.671875 631.199219 329.039062 625.234375 329.039062 L 22.488281 329.039062 C 16.523438 329.039062 10.804688 326.671875 6.585938 322.453125 C 2.371094 318.234375 0 312.515625 0 306.550781 L 0 23.480469 C 0 17.515625 2.371094 11.792969 6.585938 7.578125 C 10.804688 3.359375 16.523438 0.988281 22.488281 0.988281 Z M 22.488281 0.988281 " clip-rule="nonzero"/></clipPath><clipPath id="a85c878b6f"><rect x="0" width="648" y="0" height="330"/></clipPath><clipPath id="3f3ef5d7d1"><rect x="0" width="526" y="0" height="359"/></clipPath><clipPath id="1cf868ddf1"><path d="M 663 0.140625 L 1020 0.140625 L 1020 575.859375 L 663 575.859375 Z M 663 0.140625 " clip-rule="nonzero"/></clipPath><clipPath id="dd95f9659d"><rect x="0" width="357" y="0" height="576"/></clipPath></defs><g clip-path="url(#0c04566577)"><g clip-path="url(#a15477392b)"><g transform="matrix(1, 0, 0, 1, 0, 99)"><g clip-path="url(#a85c878b6f)"><g clip-path="url(#f9fb82253b)"><g clip-path="url(#1a41f5dddd)"><path fill="#000000" d="M 0 0.988281 L 647.128906 0.988281 L 647.128906 329.039062 L 0 329.039062 Z M 0 0.988281 " fill-opacity="1" fill-rule="nonzero"/></g></g></g></g></g></g><g transform="matrix(1, 0, 0, 1, 56, 113)"><g clip-path="url(#3f3ef5d7d1)"><g fill="#ffffff" fill-opacity="1"><g transform="translate(2.177129, 256.807955)"><g><path d="M 230.875 -132.34375 L 230.875 -81.0625 C 224.769531 -52.988281 211.40625 -31.742188 190.78125 -17.328125 C 170.15625 -2.910156 147.144531 4.296875 121.75 4.296875 C 89.851562 4.296875 62.6875 -7.632812 40.25 -31.5 C 17.8125 -55.375 6.59375 -84.210938 6.59375 -118.015625 C 6.59375 -152.390625 17.570312 -181.414062 39.53125 -205.09375 C 61.488281 -228.78125 88.894531 -240.625 121.75 -240.625 C 160.125 -240.625 190.484375 -227.160156 212.828125 -200.234375 L 177.59375 -161.5625 C 164.988281 -181.800781 147.421875 -191.921875 124.890625 -191.921875 C 108.273438 -191.921875 94.09375 -184.710938 82.34375 -170.296875 C 70.601562 -155.878906 64.734375 -138.453125 64.734375 -118.015625 C 64.734375 -97.960938 70.601562 -80.820312 82.34375 -66.59375 C 94.09375 -52.375 108.273438 -45.265625 124.890625 -45.265625 C 138.640625 -45.265625 150.625 -49.414062 160.84375 -57.71875 C 171.0625 -66.03125 176.171875 -77.0625 176.171875 -90.8125 L 121.75 -90.8125 L 121.75 -132.34375 Z M 230.875 -132.34375 "/></g></g></g><g fill="#ffffff" fill-opacity="1"><g transform="translate(239.644782, 256.807955)"><g><path d="M 165.859375 -66.453125 L 59.296875 -66.453125 C 59.296875 -56.140625 62.632812 -48.5 69.3125 -43.53125 C 76 -38.570312 83.257812 -36.09375 91.09375 -36.09375 C 99.300781 -36.09375 105.789062 -37.191406 110.5625 -39.390625 C 115.34375 -41.585938 120.789062 -45.929688 126.90625 -52.421875 L 163.5625 -34.09375 C 148.28125 -8.5 122.882812 4.296875 87.375 4.296875 C 65.21875 4.296875 46.210938 -3.289062 30.359375 -18.46875 C 14.515625 -33.65625 6.59375 -51.941406 6.59375 -73.328125 C 6.59375 -94.722656 14.515625 -113.054688 30.359375 -128.328125 C 46.210938 -143.609375 65.21875 -151.25 87.375 -151.25 C 110.664062 -151.25 129.613281 -144.515625 144.21875 -131.046875 C 158.832031 -117.585938 166.140625 -98.347656 166.140625 -73.328125 C 166.140625 -69.890625 166.046875 -67.597656 165.859375 -66.453125 Z M 60.734375 -94.53125 L 116.59375 -94.53125 C 115.445312 -102.164062 112.4375 -108.035156 107.5625 -112.140625 C 102.695312 -116.253906 96.441406 -118.3125 88.796875 -118.3125 C 80.398438 -118.3125 73.71875 -116.113281 68.75 -111.71875 C 63.78125 -107.320312 61.109375 -101.59375 60.734375 -94.53125 Z M 60.734375 -94.53125 "/></g></g></g><g fill="#ffffff" fill-opacity="1"><g transform="translate(410.942263, 256.807955)"><g><path d="M 25.78125 -146.953125 L 25.78125 -201.65625 L 76.484375 -201.65625 L 76.484375 -146.953125 L 107.421875 -146.953125 L 107.421875 -108.28125 L 76.484375 -108.28125 L 76.484375 -61.59375 C 76.484375 -48.03125 80.300781 -41.25 87.9375 -41.25 C 89.851562 -41.25 91.859375 -41.628906 93.953125 -42.390625 C 96.054688 -43.160156 97.679688 -43.925781 98.828125 -44.6875 L 100.546875 -45.828125 L 113.15625 -4.875 C 102.269531 1.238281 89.851562 4.296875 75.90625 4.296875 C 66.363281 4.296875 58.15625 2.625 51.28125 -0.71875 C 44.40625 -4.0625 39.195312 -8.546875 35.65625 -14.171875 C 32.125 -19.804688 29.59375 -25.726562 28.0625 -31.9375 C 26.539062 -38.144531 25.78125 -44.78125 25.78125 -51.84375 L 25.78125 -108.28125 L 4.578125 -108.28125 L 4.578125 -146.953125 Z M 25.78125 -146.953125 "/></g></g></g></g></g><g clip-path="url(#1cf868ddf1)"><g transform="matrix(1, 0, 0, 1, 663, -0.000000000000058398)"><g clip-path="url(#dd95f9659d)"><g fill="#000000" fill-opacity="1"><g transform="translate(1.320776, 387.46523)"><g><path d="M 62.203125 0 L 32.515625 0 L 32.515625 -250.703125 L 62.203125 -250.703125 Z M 62.203125 0 "/></g></g></g><g fill="#000000" fill-opacity="1"><g transform="translate(96.0423, 387.46523)"><g><path d="M 226.203125 0 L 192.265625 0 L 32.984375 -249.296875 L 32.984375 -250.703125 L 66.453125 -250.703125 L 226.203125 -1.40625 Z M 226.203125 -35.34375 L 225.25 -35.34375 L 198.875 -76.8125 L 198.875 -250.703125 L 226.203125 -250.703125 Z M 59.84375 0 L 32.515625 0 L 32.515625 -215.359375 L 33.9375 -215.359375 L 60.3125 -172.953125 Z M 59.84375 0 "/></g></g></g></g></g></g></svg>